<?xml version="1.0" standalone="no"?>
<!DOCTYPE svg PUBLIC "-//W3C//DTD SVG 20010904//EN"
 "http://www.w3.org/TR/2001/REC-SVG-20010904/DTD/svg10.dtd">
<svg version="1.0" xmlns="http://www.w3.org/2000/svg"
 width="529.000000pt" height="131.000000pt" viewBox="0 0 529.000000 131.000000"
 preserveAspectRatio="xMidYMid meet">

<g transform="translate(0.000000,131.000000) scale(0.100000,-0.100000)"
fill="#000000" stroke="none">
<path d="M3435 1167 c-22 -17 -116 -97 -210 -177 -93 -80 -203 -172 -243 -205
l-73 -60 55 -3 c31 -2 56 -8 56 -13 0 -13 -228 -460 -241 -474 -6 -5 -9 -4 -9
3 0 7 -26 68 -58 135 -32 67 -83 177 -113 244 l-54 123 -113 0 -112 0 19 -37
c31 -61 158 -327 228 -478 36 -77 70 -145 77 -151 7 -7 59 -9 156 -6 l145 5
38 76 c21 42 98 195 172 341 198 393 343 712 323 710 -2 -1 -21 -15 -43 -33z"/>
<path d="M105 727 c-3 -7 -4 -158 -3 -337 l3 -325 95 0 95 0 3 108 3 107 185
0 c210 0 229 5 286 68 45 50 62 108 54 185 -10 95 -53 160 -128 192 -50 20
-586 23 -593 2z m501 -161 c39 -33 39 -89 0 -122 -26 -23 -34 -24 -167 -24
l-139 0 0 85 0 85 139 0 c133 0 141 -1 167 -24z"/>
<path d="M1016 688 c-13 -29 -56 -120 -96 -203 -107 -223 -190 -405 -190 -416
0 -6 38 -9 98 -7 l97 3 34 68 34 67 164 -2 165 -3 27 -65 28 -65 101 -3 c69
-2 102 1 102 8 0 12 -55 131 -209 455 l-99 210 -117 3 -116 3 -23 -53z m187
-225 c26 -54 47 -104 47 -110 0 -10 -25 -13 -93 -13 -52 0 -96 2 -99 5 -6 6
84 215 93 215 3 0 27 -44 52 -97z"/>
<path d="M1610 400 l0 -341 98 3 97 3 1 90 c1 50 2 98 3 108 1 14 11 17 61 17
69 0 61 6 175 -134 l70 -86 118 0 c64 0 117 3 117 6 0 3 -39 48 -87 100 -49
52 -89 98 -90 102 -1 4 20 17 46 28 35 15 58 35 78 65 25 37 28 53 31 133 3
79 0 97 -20 136 -13 26 -41 57 -66 75 l-44 30 -294 3 -294 3 0 -341z m478 184
c31 -9 55 -57 47 -95 -4 -16 -18 -38 -32 -49 -23 -18 -41 -20 -159 -20 -74 0
-134 3 -135 8 -5 43 -7 131 -3 145 5 15 20 17 132 17 70 0 137 -3 150 -6z"/>
<path d="M3369 708 c-55 -118 -153 -325 -215 -455 -102 -215 -104 -193 16
-193 l100 0 33 68 32 67 168 0 168 0 27 -65 28 -65 102 -3 c57 -1 102 1 102 6
0 5 -25 63 -56 128 -31 66 -73 155 -94 199 -21 44 -61 130 -90 190 -29 61 -56
120 -61 133 -8 21 -13 22 -127 22 l-118 0 -15 -32z m184 -251 c26 -56 47 -105
47 -108 0 -8 -177 -12 -189 -4 -9 5 77 215 88 215 3 0 27 -46 54 -103z"/>
<path d="M3980 573 c0 -93 -1 -244 -3 -338 l-2 -170 305 0 305 0 -1 78 0 79
-195 -2 c-108 0 -203 2 -212 6 -15 5 -17 32 -17 260 l0 254 -90 0 -90 0 0
-167z"/>
<path d="M4412 663 c35 -43 112 -137 171 -210 l107 -131 0 -131 0 -131 100 0
100 0 0 130 0 131 170 204 c94 112 170 206 170 210 0 3 -51 5 -113 5 -132 0
-110 15 -240 -157 l-84 -112 -100 132 -100 132 -122 3 -123 3 64 -78z"/>
</g>
</svg>
