<svg width="684" height="153" viewBox="0 0 684 153" fill="none" xmlns="http://www.w3.org/2000/svg">
<path d="M444.45 4.40126C441.517 6.66792 428.983 17.3346 416.45 28.0013C404.05 38.6679 389.383 50.9346 384.05 55.3346L374.317 63.3346L381.65 63.7346C385.783 64.0013 389.117 64.8013 389.117 65.4679C389.117 67.2013 358.717 126.801 356.983 128.668C356.183 129.335 355.783 129.201 355.783 128.268C355.783 127.335 352.317 119.201 348.05 110.268C343.783 101.335 336.983 86.6679 332.983 77.7346L325.783 61.3346H310.717H295.783L298.317 66.2679C302.45 74.4013 319.383 109.868 328.717 130.001C333.517 140.268 338.05 149.335 338.983 150.135C339.917 151.068 346.85 151.335 359.783 150.935L379.117 150.268L384.183 140.135C386.983 134.535 397.25 114.135 407.117 94.6679C433.517 42.2679 452.85 -0.265411 450.183 0.00125555C449.917 0.134589 447.383 2.00126 444.45 4.40126Z" fill="#2C6DEF"/>
<path d="M0.45 63.0679C0.05 64.0013 -0.0833333 84.1346 0.05 108.001L0.45 151.335H13.1167H25.7833L26.1833 136.935L26.5833 122.668H51.25C79.25 122.668 81.7833 122.001 89.3833 113.601C95.3833 106.935 97.65 99.2013 96.5833 88.9346C95.25 76.2679 89.5167 67.6013 79.5167 63.3346C72.85 60.6679 1.38333 60.2679 0.45 63.0679ZM67.25 84.5346C72.45 88.9346 72.45 96.4013 67.25 100.801C63.7833 103.868 62.7167 104.001 44.9833 104.001H26.45V92.6679V81.3346H44.9833C62.7167 81.3346 63.7833 81.4679 67.25 84.5346Z" fill="black"/>
<path d="M121.917 68.2679C120.183 72.1346 114.45 84.2679 109.117 95.3346C94.85 125.068 83.7833 149.335 83.7833 150.801C83.7833 151.601 88.85 152.001 96.85 151.735L109.783 151.335L114.317 142.268L118.85 133.335L140.717 133.601L162.717 134.001L166.317 142.668L170.05 151.335L183.517 151.735C192.717 152.001 197.117 151.601 197.117 150.668C197.117 149.068 189.783 133.201 169.25 90.0013L156.05 62.0013L140.45 61.6013L124.983 61.2013L121.917 68.2679ZM146.85 98.2679C150.317 105.468 153.117 112.135 153.117 112.935C153.117 114.268 149.783 114.668 140.717 114.668C133.783 114.668 127.917 114.401 127.517 114.001C126.717 113.201 138.717 85.3346 139.917 85.3346C140.317 85.3346 143.517 91.2013 146.85 98.2679Z" fill="black"/>
<path d="M201.117 106.668V152.135L214.183 151.735L227.117 151.335L227.25 139.335C227.383 132.668 227.517 126.268 227.65 124.935C227.783 123.068 229.117 122.668 235.783 122.668C244.983 122.668 243.917 121.868 259.117 140.535L268.45 152.001H284.183C292.717 152.001 299.783 151.601 299.783 151.201C299.783 150.801 294.583 144.801 288.183 137.868C281.65 130.935 276.317 124.801 276.183 124.268C276.05 123.735 278.85 122.001 282.317 120.535C286.983 118.535 290.05 115.868 292.717 111.868C296.05 106.935 296.45 104.801 296.85 94.1346C297.25 83.6013 296.85 81.2013 294.183 76.0013C292.45 72.5346 288.717 68.4013 285.383 66.0013L279.517 62.0013L240.317 61.6013L201.117 61.2013V106.668ZM264.85 82.1346C268.983 83.3346 272.183 89.7346 271.117 94.8013C270.583 96.9346 268.717 99.8679 266.85 101.335C263.783 103.735 261.383 104.001 245.65 104.001C235.783 104.001 227.783 103.601 227.65 102.935C226.983 97.2013 226.717 85.4679 227.25 83.6013C227.917 81.6013 229.917 81.3346 244.85 81.3346C254.183 81.3346 263.117 81.7346 264.85 82.1346Z" fill="black"/>
<path d="M435.65 65.6013C428.317 81.3346 415.25 108.935 406.983 126.268C393.383 154.935 393.117 152.001 409.117 152.001H422.45L426.85 142.935L431.117 134.001H453.517H475.917L479.517 142.668L483.25 151.335L496.85 151.735C504.45 151.868 510.45 151.601 510.45 150.935C510.45 150.268 507.117 142.535 502.983 133.868C498.85 125.068 493.25 113.201 490.45 107.335C487.65 101.468 482.317 90.0013 478.45 82.0013C474.583 73.8679 470.983 66.0013 470.317 64.2679C469.25 61.4679 468.583 61.3346 453.383 61.3346H437.65L435.65 65.6013ZM460.183 99.0679C463.65 106.535 466.45 113.068 466.45 113.468C466.45 114.535 442.85 115.068 441.25 114.001C440.05 113.335 451.517 85.3346 452.983 85.3346C453.383 85.3346 456.583 91.4679 460.183 99.0679Z" fill="black"/>
<path d="M517.117 83.6013C517.117 96.0013 516.983 116.135 516.717 128.668L516.45 151.335H557.117H597.783L597.65 140.935V130.401L571.65 130.668C557.25 130.668 544.583 130.401 543.383 129.868C541.383 129.201 541.117 125.601 541.117 95.2013V61.3346H529.117H517.117V83.6013Z" fill="black"/>
<path d="M574.717 71.6013C579.383 77.3346 589.65 89.8679 597.517 99.6013L611.783 117.068V134.535V152.001H625.117H638.45V134.668V117.201L661.117 90.0013C673.65 75.0679 683.783 62.5346 683.783 62.0013C683.783 61.6013 676.983 61.3346 668.717 61.3346C651.117 61.3346 654.05 59.3346 636.717 82.2679L625.517 97.2013L612.183 79.6013L598.85 62.0013L582.583 61.6013L566.183 61.2013L574.717 71.6013Z" fill="black"/>
</svg>
